HIERARCHY
ROOT Hips
{
	OFFSET 49.160702 6.728782 49.779400
	CHANNELS 6 Xposition Yposition Zposition Xrotation Yrotation Zrotation
	JOINT spine
	{
		OFFSET 0.000000 -0.359108 6.244789
		CHANNELS 3 Xrotation Yrotation Zrotation
		JOINT spine1
		{
			OFFSET 0.000000 -0.000001 9.069408
			CHANNELS 3 Xrotation Yrotation Zrotation
			JOINT spine2
			{
				OFFSET 0.000000 -0.000001 8.690140
				CHANNELS 3 Xrotation Yrotation Zrotation
				JOINT Neck
				{
					OFFSET 0.000000 -1.063724 22.311203
					CHANNELS 3 Xrotation Yrotation Zrotation
					JOINT Head
					{
						OFFSET 0.000000 -0.000001 6.740807
						CHANNELS 3 Xrotation Yrotation Zrotation
						End Site
						{
							OFFSET 0.000000 5.380968 16.316498
						}
					}
				}
				JOINT RightShoulder
				{
					OFFSET -3.659161 0.509512 9.384682
					CHANNELS 3 Xrotation Yrotation Zrotation
					JOINT RightArm
					{
						OFFSET 0.000000 -0.000002 12.308899
						CHANNELS 3 Xrotation Yrotation Zrotation
						JOINT RightArmRoll
						{
							OFFSET 0.000000 -0.000001 6.213753
							CHANNELS 3 Xrotation Yrotation Zrotation
							JOINT RightForeArm
							{
								OFFSET 0.000000 -0.000003 18.098495
								CHANNELS 3 Xrotation Yrotation Zrotation
								JOINT RightForeArmRoll
								{
									OFFSET 0.000000 -0.000001 6.972794
									CHANNELS 3 Xrotation Yrotation Zrotation
									JOINT RightHand
									{
										OFFSET 0.000000 -0.000002 13.992905
										CHANNELS 3 Xrotation Yrotation Zrotation
										End Site
										{
											OFFSET 0.000000 0.000000 0.100006
										}
									}
								}
							}
						}
					}
				}
				JOINT LeftShoulder
				{
					OFFSET 3.659161 0.509512 9.384682
					CHANNELS 3 Xrotation Yrotation Zrotation
					JOINT LeftArm
					{
						OFFSET 0.000000 -0.000002 12.308899
						CHANNELS 3 Xrotation Yrotation Zrotation
						JOINT LeftArmRoll
						{
							OFFSET 0.000000 -0.000001 6.213753
							CHANNELS 3 Xrotation Yrotation Zrotation
							JOINT LeftForeArm
							{
								OFFSET 0.000000 -0.000003 18.098495
								CHANNELS 3 Xrotation Yrotation Zrotation
								JOINT LeftForeArmRoll
								{
									OFFSET 0.000000 -0.000001 6.972801
									CHANNELS 3 Xrotation Yrotation Zrotation
									JOINT LeftHand
									{
										OFFSET 0.000000 -0.000002 13.992897
										CHANNELS 3 Xrotation Yrotation Zrotation
										End Site
										{
											OFFSET 0.000000 0.000000 0.100006
										}
									}
								}
							}
						}
					}
				}
			}
		}
	}
	JOINT RightUpLeg
	{
		OFFSET -5.535149 0.851454 -1.014999
		CHANNELS 3 Xrotation Yrotation Zrotation
		JOINT RightUpLegRoll
		{
			OFFSET 0.000000 -0.000002 16.407497
			CHANNELS 3 Xrotation Yrotation Zrotation
			JOINT RightLeg
			{
				OFFSET 0.000000 0.000003 -20.318100
				CHANNELS 3 Xrotation Yrotation Zrotation
				JOINT RightLegRoll
				{
					OFFSET 0.000000 -0.000003 20.384598
					CHANNELS 3 Xrotation Yrotation Zrotation
					JOINT RightFoot
					{
						OFFSET 0.000000 -0.000003 16.966805
						CHANNELS 3 Xrotation Yrotation Zrotation
						JOINT RightToeBase
						{
							OFFSET 0.000000 -0.000002 14.183403
							CHANNELS 3 Xrotation Yrotation Zrotation
							End Site
							{
								OFFSET 0.006012 0.791745 6.868889
							}
						}
					}
				}
			}
		}
	}
	JOINT LeftUpLeg
	{
		OFFSET 5.535149 0.851454 -1.014999
		CHANNELS 3 Xrotation Yrotation Zrotation
		JOINT LeftUpLegRoll
		{
			OFFSET 0.000000 -0.000002 16.407597
			CHANNELS 3 Xrotation Yrotation Zrotation
			JOINT LeftLeg
			{
				OFFSET 0.000000 -0.000003 20.318100
				CHANNELS 3 Xrotation Yrotation Zrotation
				JOINT LeftLegRoll
				{
					OFFSET 0.000000 -0.000003 20.573097
					CHANNELS 3 Xrotation Yrotation Zrotation
					JOINT LeftFoot
					{
						OFFSET 0.000000 -0.000003 16.778297
						CHANNELS 3 Xrotation Yrotation Zrotation
						JOINT LeftToeBase
						{
							OFFSET 0.000000 -0.000002 14.183395
							CHANNELS 3 Xrotation Yrotation Zrotation
							End Site
							{
								OFFSET -0.026943 0.791745 6.868896
							}
						}
					}
				}
			}
		}
	}
}
MOTION
Frames: 10
Frame Time: 0.041667
52.860397 -41.621304 84.322708 2.677855 1.079470 -6.324976 -1.480368 -0.027778 -0.044789 1.042061 -0.055395 -0.089932 2.687131 -0.055736 -0.089404 11.459650 -6.517203 -1.025150 7.129500 1.498589 -0.504906 -9.672949 -69.679473 -11.996274 -41.338911 -108.037282 -27.360619 -0.000001 -0.000001 0.000003 8.665355 -8.236850 -0.009647 -0.000003 0.000001 -3.000002 -5.000224 -7.998975 0.000140 -20.768281 57.381983 24.579520 -10.390889 115.471929 -9.465765 -0.000001 0.000000 0.000006 15.028996 -0.352582 0.518371 -0.000004 -0.000007 3.000023 -5.000156 8.000082 -0.000023 -9.376542 -179.110045 -1.524091 -179.999991 0.000005 -0.906997 170.724198 -0.587221 -0.881897 -0.000003 -0.000001 0.037011 68.193080 6.615155 2.903061 25.456923 -7.346643 0.000002 -4.154317 178.949768 -0.886378 -0.000005 -0.000004 -1.081490 -10.627453 1.738794 0.909195 0.000004 0.000001 -0.277098 72.714194 -7.191668 -0.994851 26.375252 7.350573 -0.119124 
52.869198 -41.623409 84.324089 2.684910 1.081661 -6.334872 -1.476620 -0.027885 -0.041467 1.049571 -0.055690 -0.083294 2.694642 -0.056005 -0.082752 11.439880 -6.550282 -1.035568 7.158635 1.529639 -0.515528 -9.751266 -69.678544 -12.083615 -41.160284 -108.021771 -27.187865 0.000000 0.000000 0.000000 8.702430 -8.240093 -0.006547 -0.000004 0.000002 -2.999999 -5.000225 -7.998975 0.000138 -20.760517 57.352108 24.570724 -10.258019 115.529221 -9.603378 -0.000000 -0.000000 0.000010 15.041221 -0.367870 0.520031 -0.000003 -0.000009 3.000018 -5.000157 8.000080 -0.000023 -9.389451 -179.108119 -1.524366 -179.999991 0.000005 -0.906996 170.728597 -0.591179 -0.882497 -0.000003 -0.000001 0.037152 68.196174 6.612461 2.908553 25.456921 -7.346640 0.000001 -4.151531 178.946776 -0.893723 -0.000005 -0.000004 -1.081490 -10.601507 1.750609 0.908139 0.000003 0.000000 -0.276565 72.706148 -7.195672 -0.984079 26.368082 7.350566 -0.118141 
52.860897 -41.623207 84.326904 2.691402 1.084153 -6.344571 -1.472631 -0.027957 -0.037981 1.057531 -0.055921 -0.076330 2.702602 -0.056206 -0.075775 11.417340 -6.585495 -1.046862 7.190137 1.561827 -0.526833 -9.835061 -69.677984 -12.177105 -40.982313 -108.006683 -27.015352 -0.000001 -0.000001 0.000001 8.739259 -8.243179 -0.003450 -0.000002 0.000002 -3.000002 -5.000223 -7.998975 0.000138 -20.752027 57.319979 24.561097 -10.125437 115.588630 -9.741077 -0.000001 -0.000000 0.000010 15.052950 -0.384483 0.521828 -0.000004 -0.000009 3.000020 -5.000155 8.000081 -0.000022 -9.401319 -179.106165 -1.524819 -179.999991 0.000005 -0.906997 170.733173 -0.595137 -0.882096 -0.000003 -0.000001 0.037322 68.199630 6.609905 2.913653 25.456919 -7.346641 0.000002 -4.147737 178.942774 -0.901737 -0.000005 -0.000004 -1.081489 -10.575167 1.762832 0.907071 0.000003 0.000001 -0.276016 72.697815 -7.199760 -0.973140 26.361006 7.350569 -0.117180 
52.871597 -41.606709 84.324905 2.697495 1.086865 -6.354136 -1.468491 -0.028004 -0.034381 1.065821 -0.056106 -0.069137 2.710891 -0.056361 -0.068569 11.393021 -6.622196 -1.058769 7.223305 1.594810 -0.538630 -9.922698 -69.677663 -12.274886 -40.804817 -107.991957 -26.843181 -0.000001 0.000001 0.000001 8.775921 -8.246144 -0.000336 -0.000002 0.000002 -2.999999 -5.000224 -7.998975 0.000141 -20.743090 57.286398 24.550953 -9.993046 115.650170 -9.878938 -0.000000 0.000001 0.000011 15.064483 -0.402023 0.523728 -0.000003 -0.000009 3.000021 -5.000154 8.000081 -0.000021 -9.412467 -179.104226 -1.525399 -179.999991 0.000005 -0.906997 170.737941 -0.598098 -0.882528 -0.000003 -0.000001 0.037510 68.203428 6.607491 2.918360 25.456921 -7.346641 0.000001 -4.143233 178.937774 -0.910197 -0.000005 -0.000004 -1.081490 -10.548624 1.775351 0.905994 0.000003 0.000001 -0.275457 72.689380 -7.203885 -0.962113 26.354241 7.350563 -0.116253 
52.888298 -41.596004 84.323105 2.703372 1.089706 -6.363621 -1.464260 -0.028037 -0.030716 1.074281 -0.056263 -0.061813 2.719351 -0.056487 -0.061234 11.367617 -6.659763 -1.071059 7.257415 1.628228 -0.550729 -10.012472 -69.677383 -12.375093 -40.629288 -107.976698 -26.672883 -0.000001 0.000000 -0.000000 8.812481 -8.249050 0.002766 -0.000001 0.000001 -3.000001 -5.000223 -7.998975 0.000142 -20.733621 57.251872 24.540246 -9.861099 115.712830 -10.016457 -0.000000 0.000000 0.000009 15.075821 -0.420096 0.525686 -0.000003 -0.000008 3.000023 -5.000156 8.000082 -0.000022 -9.423176 -179.103256 -1.525890 -179.999991 0.000005 -0.906997 170.742790 -0.601072 -0.881965 -0.000003 -0.000001 0.037711 68.207464 6.605133 2.922863 25.456921 -7.346641 0.000002 -4.138315 178.933785 -0.919025 -0.000005 -0.000004 -1.081490 -10.521882 1.788021 0.904903 0.000004 0.000001 -0.274892 72.680842 -7.208021 -0.951096 26.347569 7.350569 -0.115337 
52.888397 -41.584602 84.326706 2.709183 1.092568 -6.373098 -1.460009 -0.028065 -0.027035 1.082801 -0.056411 -0.054458 2.727861 -0.056604 -0.053866 11.341921 -6.697529 -1.083459 7.291773 1.661759 -0.562931 -10.102810 -69.677123 -12.475909 -40.451444 -107.962375 -26.500215 -0.000001 0.000000 -0.000001 8.849012 -8.251939 0.005866 -0.000004 0.000002 -2.999999 -5.000224 -7.998975 0.000141 -20.724420 57.217096 24.529754 -9.729809 115.775613 -10.153355 -0.000001 0.000000 0.000009 15.087154 -0.438301 0.527664 -0.000005 -0.000008 3.000020 -5.000157 8.000081 -0.000021 -9.433793 -179.101316 -1.526556 -179.999991 0.000005 -0.906996 170.747680 -0.604033 -0.882394 -0.000003 -0.000001 0.037914 68.211603 6.602783 2.927361 25.456921 -7.346642 0.000002 -4.133301 178.928785 -0.927853 -0.000005 -0.000004 -1.081490 -10.495043 1.800743 0.903801 0.000004 0.000001 -0.274325 72.672318 -7.212184 -0.939981 26.340799 7.350572 -0.114415 
52.886395 -41.569901 84.326202 2.715105 1.095370 -6.382603 -1.455799 -0.028101 -0.023387 1.091221 -0.056570 -0.047169 2.736282 -0.056733 -0.046563 11.316817 -6.734845 -1.095719 7.325666 1.695038 -0.575044 -10.192065 -69.676775 -12.575531 -40.275314 -107.947458 -26.329457 -0.000001 0.000000 -0.000001 8.885607 -8.254857 0.008975 -0.000003 0.000002 -2.999999 -5.000223 -7.998975 0.000142 -20.715168 57.182859 24.519278 -9.599409 115.837522 -10.289172 -0.000001 0.000000 0.000008 15.098490 -0.456235 0.529631 -0.000004 -0.000009 3.000017 -5.000157 8.000081 -0.000021 -9.444616 -179.100360 -1.527028 -179.999991 0.000005 -0.906997 170.752489 -0.607992 -0.882986 -0.000003 -0.000001 0.038111 68.215531 6.600418 2.931870 25.456921 -7.346639 0.000002 -4.128487 178.923799 -0.936543 -0.000005 -0.000004 -1.081490 -10.468404 1.813377 0.902689 0.000004 0.000001 -0.273762 72.663794 -7.216346 -0.928869 26.334132 7.350568 -0.113495 
52.893898 -41.559303 84.328598 2.721312 1.098011 -6.392207 -1.451698 -0.028153 -0.019819 1.099411 -0.056759 -0.040040 2.744482 -0.056892 -0.039423 11.292994 -6.771094 -1.107599 7.358363 1.727743 -0.586864 -10.278548 -69.676146 -12.672056 -40.096410 -107.933340 -26.155897 -0.000000 -0.000001 -0.000001 8.922314 -8.257855 0.012099 -0.000003 0.000001 -3.000002 -5.000223 -7.998975 0.000140 -20.706364 57.149665 24.509270 -9.469388 115.899568 -10.424426 -0.000000 -0.000000 0.000012 15.110129 -0.473509 0.531527 -0.000004 -0.000009 3.000018 -5.000156 8.000080 -0.000023 -9.455964 -179.098420 -1.527574 -179.999991 0.000005 -0.906995 170.757215 -0.610966 -0.882408 -0.000003 -0.000001 0.038296 68.219328 6.597968 2.936671 25.456921 -7.346644 0.000002 -4.124181 178.919811 -0.944927 -0.000005 -0.000004 -1.081490 -10.441863 1.825806 0.901564 0.000003 0.000001 -0.273206 72.655365 -7.220476 -0.917943 26.327266 7.350567 -0.112554 
52.906998 -41.537304 84.326508 2.727973 1.100402 -6.401969 -1.447788 -0.028231 -0.016383 1.107241 -0.056997 -0.033174 2.752302 -0.057101 -0.032543 11.271251 -6.805612 -1.118815 7.389185 1.759505 -0.598193 -10.360565 -69.675026 -12.763580 -39.916438 -107.919216 -25.981609 -0.000000 -0.000001 -0.000001 8.959226 -8.260981 0.015226 -0.000004 0.000002 -3.000000 -5.000225 -7.998975 0.000138 -20.698214 57.118219 24.500000 -9.340646 115.958744 -10.557893 -0.000000 0.000000 0.000010 15.121967 -0.489719 0.533330 -0.000003 -0.000009 3.000018 -5.000158 8.000080 -0.000023 -9.468149 -179.096480 -1.527977 -179.999991 0.000005 -0.906996 170.761737 -0.614924 -0.883003 -0.000003 -0.000001 0.038456 68.222662 6.595368 2.941869 25.456923 -7.346643 0.000002 -4.120695 178.915794 -0.952725 -0.000005 -0.000004 -1.081489 -10.415619 1.837900 0.900427 0.000003 0.000000 -0.272660 72.647135 -7.224561 -0.907000 26.320187 7.350559 -0.111589 
52.911297 -41.527809 84.328705 2.735244 1.102453 -6.411948 -1.444130 -0.028348 -0.013125 1.114560 -0.057303 -0.026666 2.759631 -0.057381 -0.026021 11.252572 -6.837766 -1.129097 7.417390 1.790016 -0.608822 -10.436558 -69.673517 -12.848349 -39.733184 -107.905781 -25.804421 -0.000001 -0.000000 0.000001 8.996407 -8.264277 0.018364 -0.000002 0.000001 -3.000002 -5.000223 -7.998975 0.000140 -20.690931 57.089204 24.491699 -9.212641 116.016050 -10.690049 -0.000001 0.000000 0.000008 15.134405 -0.504471 0.534986 -0.000002 -0.000009 3.000019 -5.000157 8.000081 -0.000022 -9.481477 -179.094540 -1.528196 -179.999991 0.000005 -0.906996 170.766013 -0.617885 -0.882439 -0.000003 -0.000001 0.038585 68.225421 6.592650 2.947579 25.456924 -7.346640 0.000002 -4.118321 178.912816 -0.959775 -0.000005 -0.000004 -1.081491 -10.389874 1.849540 0.899285 0.000003 0.000001 -0.272132 72.639103 -7.228598 -0.896238 26.312814 7.350563 -0.110591 
